<svg viewBox="0 0 110.76 62.77" xmlns="http://www.w3.org/2000/svg"><g fill="#fff"><path d="m28.92 37.58h1.43v7.46h-1.43z"/><path d="m33.94 37.58 3.85 5.11v-5.11h1.39v7.46h-1.36l-3.83-5.09v5.09h-1.4v-7.46z"/><path d="m46.56 37.58-.01 1.25h-3.7v2.02h3.37v1.24h-3.37v2.95h-1.43v-7.46z"/><path d="m55.4 41.31c0 2.14-1.73 3.79-3.97 3.79s-3.97-1.65-3.97-3.79c0-2.15 1.73-3.77 3.97-3.77s3.97 1.63 3.97 3.77m-6.49 0c0 1.41 1.16 2.51 2.54 2.51 1.36 0 2.49-1.11 2.49-2.51 0-1.41-1.13-2.49-2.49-2.49-1.39 0-2.54 1.09-2.54 2.49"/><path d="m61.74 45.04-1.29-2.21c-.08.01-.17.01-.27.01h-1.68v2.19h-1.43v-7.46h3.11c1.93 0 3.02.93 3.02 2.57 0 1.17-.52 2.01-1.48 2.42l1.64 2.47h-1.62zm-3.24-3.45h1.68c1.06 0 1.66-.46 1.66-1.4 0-.91-.6-1.36-1.66-1.36h-1.68z"/><path d="m66.83 37.58 2.35 4.79 2.33-4.79h1.64v7.46h-1.3l-.01-5.32-2.2 4.56h-.93l-2.21-4.56v5.32h-1.32v-7.46z"/><path d="m80.26 43.47h-3.64l-.66 1.58h-1.48l3.27-7.46h1.48l3.23 7.46h-1.53zm-.51-1.23-1.3-3.13-1.32 3.13z"/><path d="m88.28 37.58v1.27h-2.32v6.19h-1.44v-6.19h-2.33v-1.27z"/><path d="m89.7 37.58h1.43v7.46h-1.43z"/><path d="m101.16 45.9c-.58.52-1.36.82-2.07.82-.96 0-1.81-.59-2.38-1.61-2.23-.02-3.93-1.66-3.93-3.79 0-2.15 1.73-3.77 3.97-3.77 2.25 0 3.97 1.63 3.97 3.77 0 1.68-1.07 3.07-2.61 3.58.35.39.74.63 1.14.63.38 0 .86-.22 1.34-.6zm-4.38-2.07c1.36 0 2.49-1.11 2.49-2.51 0-1.41-1.13-2.49-2.49-2.49-1.38 0-2.53 1.09-2.53 2.49s1.16 2.51 2.53 2.51"/><path d="m105.64 43.83c1.13 0 1.84-.7 1.84-1.89v-4.35h1.43v4.35c0 1.96-1.25 3.17-3.27 3.17-2.03 0-3.31-1.21-3.31-3.17v-4.35h1.43v4.35c-.01 1.17.75 1.89 1.88 1.89"/><path d="m116.47 37.58v1.25h-4.04v1.84h3.62v1.25h-3.62v1.88h4.17v1.24h-5.6v-7.46z"/><path d="m58.49 48.11c2.13 0 3.85 1.76 3.82 3.88-.04 2.01-1.7 3.77-3.9 3.73-2.1-.04-3.76-1.76-3.75-3.84.02-2.08 1.73-3.77 3.83-3.77m-.01 6.59c1.55 0 2.81-1.25 2.81-2.77 0-1.55-1.25-2.81-2.8-2.81-1.54 0-2.81 1.26-2.81 2.79 0 1.54 1.25 2.79 2.8 2.79"/><path d="m50.08 55.4h-.37c-.18 0-.22-.04-.19-.23.06-.36.13-.73.19-1.09.22-1.25.44-2.49.66-3.74.06-.31.05-.32.37-.39.6-.12 1.2-.22 1.82-.15.7.08 1.21.63 1.2 1.34 0 .64-.1 1.27-.36 1.86-.32.7-.9 1.01-1.64 1.05-.24.01-.48-.01-.72-.02-.1-.01-.14.01-.16.12-.05.36-.12.71-.18 1.07-.02.13-.09.2-.23.19-.12-.02-.26-.01-.39-.01m1-2.33c.25 0 .48.01.71 0 .24-.01.42-.14.51-.35.08-.19.14-.38.17-.59.05-.32.1-.64.11-.97.01-.24-.12-.37-.36-.39-.22-.01-.44 0-.65.01-.03 0-.09.06-.1.1-.13.72-.25 1.43-.39 2.19"/><path d="m46.67 49.83h.37c.18 0 .21.04.18.22-.07.42-.15.85-.22 1.28-.06.35-.13.7-.18 1.05-.08.56.12.75.68.66.19-.03.34-.14.4-.33.08-.29.15-.59.21-.89.11-.59.21-1.19.31-1.79.02-.14.1-.2.24-.2.25.01.5 0 .75 0 .2 0 .23.03.19.22-.09.54-.19 1.09-.29 1.63-.07.35-.12.7-.23 1.04-.27.87-.91 1.31-1.82 1.32-.28 0-.55-.02-.81-.11-.61-.23-.93-.79-.82-1.48.13-.81.28-1.62.41-2.43.02-.12.08-.19.22-.18.14 0 .27-.01.41-.01"/><path d="m43.04 54.08c-.39-.05-.77-.1-1.16-.17-.18-.03-.21-.09-.18-.27.02-.16.06-.31.09-.46.03-.16.09-.2.25-.19.4.04.79.07 1.19.1.05 0 .1-.01.15-.01.14-.02.25-.07.29-.23.04-.15-.05-.25-.16-.33-.28-.19-.56-.38-.85-.55-.7-.41-.6-1.34-.23-1.74.26-.28.6-.38.97-.43.55-.07 1.1-.01 1.63.12.13.03.19.1.17.23-.03.18-.06.36-.09.54-.02.12-.11.15-.22.13-.32-.03-.65-.06-.97-.08-.13-.01-.26-.01-.38.01-.07.02-.16.09-.19.16-.05.1.01.18.1.24.22.14.44.29.65.42l.23.15c.89.54.57 1.66-.02 2.01-.31.18-.64.26-.99.28-.09.01-.18 0-.27 0 0 .05-.01.06-.01.07"/><path d="m36.81 53.97c-.4.01-.78.05-1.16.04-.61-.02-.99-.39-1.02-1-.03-.73.1-1.44.39-2.11.23-.53.66-.77 1.22-.83.46-.04.91.02 1.37.1.12.02.18.06.15.21-.23 1.23-.44 2.46-.66 3.7-.02.14-.06.28-.11.41-.17.56-.55.88-1.14.89-.45.01-.91-.05-1.37-.08-.09-.01-.16-.03-.14-.15.02-.11.08-.14.18-.13.42.03.84.07 1.26.07.49 0 .73-.2.89-.66.06-.16.1-.31.14-.46m.61-3.54c-.36-.02-.71-.07-1.06-.06-.6.01-.97.34-1.15.9-.06.19-.11.4-.14.6-.06.35-.12.69-.13 1.04-.01.52.21.78.72.81.37.02.74-.05 1.1-.09.04 0 .09-.07.1-.12.1-.55.2-1.1.3-1.65.09-.47.17-.93.26-1.43"/><path d="m38.64 52.12c0 .3-.04.58-.01.86.05.46.33.72.79.72.44 0 .88-.05 1.32-.09.07 0 .17-.06.18.05.01.1-.01.21-.14.22-.44.05-.88.09-1.32.12-.13.01-.27-.02-.4-.06-.45-.14-.71-.45-.76-.9-.07-.74.05-1.46.37-2.12.39-.81 1.26-1 1.95-.8.43.12.71.5.72.99.01.28-.03.56-.06.84-.02.14-.12.17-.25.17-.73 0-1.46 0-2.18 0zm2.37-.3c.01-.27.03-.52.01-.77-.02-.37-.26-.61-.63-.67-.87-.14-1.64.54-1.63 1.44z"/><path d="m32.74 50.36c-.14.01-.28.01-.41.02-.35.05-.59.26-.68.59-.09.35-.16.7-.22 1.06-.11.6-.21 1.2-.32 1.8-.01.06-.06.15-.11.18-.17.06-.24-.01-.21-.19.15-.86.31-1.73.46-2.6.02-.11.06-.23.09-.34.18-.51.54-.8 1.08-.82.29-.01.59-.02.88.03.45.08.71.42.69.88-.02.4-.09.8-.15 1.21-.09.55-.2 1.11-.29 1.66-.03.15-.13.21-.26.15-.04-.02-.07-.11-.06-.16.08-.48.17-.96.25-1.44.07-.45.16-.89.2-1.34.03-.48-.19-.69-.67-.71-.11.03-.19.03-.27.02z"/><path d="m29.4 53.84c.06-.36.13-.73.19-1.1.14-.81.28-1.61.43-2.42.02-.11.02-.23.18-.23.15 0 .18.03.16.18-.09.5-.18 1-.26 1.5-.12.68-.24 1.36-.36 2.04-.02.11-.07.17-.19.17-.11.01-.16-.03-.15-.14"/><path d="m58.96 51.92c-.46-.4-.9-.8-1.34-1.19-.26-.23-.29-.53-.09-.75.21-.23.51-.23.77-.01.58.51 1.16 1.02 1.74 1.53.28.24.29.57.01.82-.59.53-1.19 1.05-1.79 1.57-.22.19-.54.17-.72-.03-.19-.21-.17-.52.05-.72.4-.36.81-.72 1.21-1.07.04-.05.1-.1.16-.15"/><path d="m66.27 30.08c6.46 0 11.69-5.14 11.69-11.49s-5.23-11.49-11.69-11.49-11.69 5.15-11.69 11.49 5.24 11.49 11.69 11.49zm0-17.51c3.38 0 6.12 2.7 6.12 6.02 0 3.33-2.74 6.02-6.12 6.02s-6.12-2.7-6.12-6.02c0-3.33 2.74-6.02 6.12-6.02z"/><path d="m28.83 30.08h5.56v-11.24c0-3.41 2.74-6.18 6.12-6.18s6.12 2.77 6.12 6.18v11.24h5.56v-11.24c0-6.52-5.23-11.8-11.69-11.8s-11.69 5.28-11.69 11.8v11.24z"/><path d="m16.22 18.99c0-.77-.15-1.51-.41-2.18l-3.77-9.76h-5.99l6.67 17.27c2.06-.84 3.5-2.89 3.5-5.33z"/><path d="m91.88 30.08 8.89-23.03h-5.99l-8.89 23.03z"/><path d="m87.17 18.99c0-.77-.14-1.51-.41-2.18l-3.77-9.76h-5.99l6.67 17.27c2.07-.84 3.5-2.89 3.5-5.33z"/><path d="m23.82 7.05-14.67 38.01h5.99l14.67-38.01z"/></g></svg>
